<?xml version="1.0" encoding="UTF-8"?> <svg xmlns="http://www.w3.org/2000/svg" width="100" height="16" viewBox="0 0 100 16" fill="none"> <path d="M97.2145 4.48896L89.6088 12.8022V4.48896H87.3963V15.8745H89.6088L100 4.48896H97.2145Z" fill="#738595"></path> <path d="M95.8711 0.874512H90.9521V2.6215H95.8711V0.874512Z" fill="#738595"></path> <path d="M56.2426 4.48896H54.0301V11.1355H62.9988V15.8745H65.2114V9.18776H56.2426V4.48896Z" fill="#738595"></path> <path d="M0.15804 6.41667H7.94152L0 15.8745H2.66693L12.1889 4.48896H0.15804V6.41667Z" fill="#738595"></path> <path d="M24.0814 15.8745L30.1659 9.16768V15.8745H32.3785V3.72591L21.2959 15.8745H24.0814Z" fill="#738595"></path> <path d="M37.5741 15.8745H40.4188L50.81 4.48896H48.0047L37.5741 15.8745Z" fill="#738595"></path> <path d="M81.8451 4.48896H70.644V6.41667H81.8451V4.48896Z" fill="#738595"></path> <path d="M70.644 9.18775V15.8745H81.8451V13.9066H72.8565V11.1556H81.8451V9.18775H70.644Z" fill="#738595"></path> <path d="M42.1375 7.68173L39.8656 4.48896H37.2382L40.6163 9.26808L42.1375 7.68173Z" fill="#738595"></path> </svg> 