<?xml version="1.0" encoding="UTF-8"?> <svg xmlns="http://www.w3.org/2000/svg" viewBox="0 0 141.27 36.44"> <defs> <style>.cls-1{fill:#1d1d1b;}</style> </defs> <title>Ресурс 1Инициатива иконки</title> <g id="Слой_2" data-name="Слой 2"> <g id="Слой_2-2" data-name="Слой 2"> <path class="cls-1" d="M84.42,16.77h0l.67,0h0L85,.1v0h-.72l.1,16.67Z"></path> <path class="cls-1" d="M82.92,17.09h0c.21-.07.43-.12.65-.17h0L80,.1v0h-.75l3.71,17Z"></path> <path class="cls-1" d="M81.53,17.72h0a6.71,6.71,0,0,1,.6-.31h0l-8-17.3,0-.09V1.56L81.52,17.7Z"></path> <path class="cls-1" d="M80.3,18.64h0a5.37,5.37,0,0,1,.51-.44h0L74.18,9.1l0,0v1.22l6.14,8.35Z"></path> <path class="cls-1" d="M79.29,19.8l0,0a5.12,5.12,0,0,1,.41-.54h0l-5.55-5,0,0v1l5.13,4.57Z"></path> <path class="cls-1" d="M78.56,21.14v0a5.62,5.62,0,0,1,.29-.61v0l-4.7-2.67,0,0v.83l4.39,2.5Z"></path> <path class="cls-1" d="M78.14,22.61v0c0-.22.09-.44.15-.65v0l-4.13-1.31h0v.76l4,1.26Z"></path> <path class="cls-1" d="M78,24.12v0S78,24,78,24s0-.1,0-.15,0-.2,0-.3V23.4L74.16,23h0v.73l3.87.38Z"></path> <path class="cls-1" d="M78.26,25.62v0c0-.22-.1-.44-.13-.66v0l-4,.44h0v.73l4.09-.46Z"></path> <path class="cls-1" d="M74.14,28.56,78.76,27h0v0c-.1-.2-.19-.41-.27-.62v0L74.15,27.8h0v.76Z"></path> <path class="cls-1" d="M79.59,28.28l0,0c-.14-.18-.28-.37-.4-.55v0l-5,2.93h0v.79l5.42-3.13Z"></path> <path class="cls-1" d="M80.62,29.33h0c-.17-.15-.34-.3-.5-.46h0l-5.94,5.5-.05,0h1l5.53-5Z"></path> <path class="cls-1" d="M81.85,30.14h0a5.51,5.51,0,0,1-.58-.34l0,0-3.29,4.58,0,0h.89l3-4.23Z"></path> <path class="cls-1" d="M83.21,30.68h0a6.08,6.08,0,0,1-.64-.22h0l-1.71,3.91v0h.78L83.2,30.7Z"></path> <path class="cls-1" d="M83.94,30.84h0l-.73,3.52v0h.73L84.63,31v0h0C84.39,30.9,84.17,30.88,83.94,30.84Z"></path> <path class="cls-1" d="M86.08,30.88h0c-.22,0-.44,0-.68.05h0l0,3.44v0h.72l0-3.49Z"></path> <path class="cls-1" d="M87.48,30.54h0l-.65.19h0l.79,3.63v0h.74l-.84-3.83Z"></path> <path class="cls-1" d="M88.78,29.93h0c-.2.12-.4.22-.6.32h0L90,34.38h.76l-2-4.44Z"></path> <path class="cls-1" d="M89.93,29.07l0,0-.52.43h0l3.57,4.85h.9l-3.9-5.3Z"></path> <path class="cls-1" d="M90.88,28l0,0a5.3,5.3,0,0,1-.42.52v0L97,34.38h1.09L90.9,28Z"></path> <path class="cls-1" d="M91.6,26.76v0a5.65,5.65,0,0,1-.31.6v0l12.28,7H105L91.62,26.77Z"></path> <path class="cls-1" d="M92.06,25.39v0a5.06,5.06,0,0,1-.18.65v0L118,34.39h2.39l-28.27-9Z"></path> <path class="cls-1" d="M92.23,24v0c0,.24,0,.46,0,.67v0l49.06,4.86h0V28.8L92.25,24Z"></path> <path class="cls-1" d="M92.13,22.51h0v0c0,.23.07.45.09.67v0l49.05-5.48h0V17l-15.72,1.75Z"></path> <path class="cls-1" d="M91.68,21.09v0c.09.22.16.43.23.63v0L141.25,5.41h0V4.65L91.7,21.08Z"></path> <path class="cls-1" d="M91,19.79l0,0a6.36,6.36,0,0,1,.35.58v0L126,.12l.07,0h-1.43L91,19.78Z"></path> <path class="cls-1" d="M90,18.67v0a5.32,5.32,0,0,1,.47.48l0,0L111.39.12l0,0h-1.06L90,18.65Z"></path> <path class="cls-1" d="M88.79,17.76l0,0c.19.11.38.24.56.37l0,0,13-18,0,0h-.88L88.81,17.74Z"></path> <path class="cls-1" d="M87.43,17.13h0c.22.08.43.16.62.25h0L95.67.11v0H94.9l-7.46,17Z"></path> <path class="cls-1" d="M86.64,16.9h0L90.12.11v0h-.73L86,16.77v0h0Z"></path> <path class="cls-1" d="M91.15,25.16v0L90.49,25h0v0a5.37,5.37,0,1,1-5.26-6.5,5.27,5.27,0,0,1,3.22,1.08,5.35,5.35,0,0,1,1.92,2.71v0l.66-.21h0v0A6.15,6.15,0,0,0,88.85,19a6.1,6.1,0,1,0-3.65,11,6.06,6.06,0,0,0,6-4.78Z"></path> <path class="cls-1" d="M.24,11.14H0v-.79H.24a.79.79,0,0,0,.54-.19c.35-.32.52-1.11.52-2.37V4.63H5.94v6.51H5.1V5.41h-3V7.79C2.14,10,1.51,11.14.24,11.14Z"></path> <path class="cls-1" d="M9.45,6.2A2.22,2.22,0,0,1,11.22,7V6.3H12v4.84h-.78v-.69a2.22,2.22,0,0,1-1.77.79,2.25,2.25,0,0,1-1.7-.72,2.53,2.53,0,0,1-.68-1.8,2.5,2.5,0,0,1,.68-1.8A2.24,2.24,0,0,1,9.45,6.2ZM9.53,7a1.61,1.61,0,0,0-1.18.5,1.74,1.74,0,0,0-.47,1.24A1.76,1.76,0,0,0,8.35,10a1.63,1.63,0,0,0,1.18.5,1.6,1.6,0,0,0,1.19-.5,1.69,1.69,0,0,0,.48-1.24,1.69,1.69,0,0,0-.48-1.24A1.6,1.6,0,0,0,9.53,7Z"></path> <path class="cls-1" d="M14.1,9.05v2.09h-.78V6.3h.78v2H17v-2h.79v4.84H17V9.05Z"></path> <path class="cls-1" d="M19.41,11.14v1.39h-.78V10.38h.73a2.22,2.22,0,0,0,.42-1.62V6.3h3.79v4.08h.88v2.15h-.78V11.14Zm.81-.76h2.57V7.05H20.56V8.78A3.31,3.31,0,0,1,20.22,10.38Z"></path> <path class="cls-1" d="M25.32,11.14V6.3h.78v4.08h2.22V6.3h.79v4.08h2.21V6.3h.78v4.84Z"></path> <path class="cls-1" d="M35.56,6.2A2.22,2.22,0,0,1,37.33,7V6.3h.78v4.84h-.78v-.69a2.22,2.22,0,0,1-1.77.79,2.25,2.25,0,0,1-1.7-.72,2.53,2.53,0,0,1-.68-1.8,2.5,2.5,0,0,1,.68-1.8A2.24,2.24,0,0,1,35.56,6.2Zm.08.78a1.61,1.61,0,0,0-1.18.5A1.74,1.74,0,0,0,34,8.72,1.76,1.76,0,0,0,34.46,10a1.63,1.63,0,0,0,1.18.5,1.6,1.6,0,0,0,1.19-.5,1.69,1.69,0,0,0,.48-1.24,1.69,1.69,0,0,0-.48-1.24A1.6,1.6,0,0,0,35.64,7Z"></path> <path class="cls-1" d="M43.11,11.24h-.29v2H42v-2h-.29a2.48,2.48,0,0,1-1.81-.72,2.44,2.44,0,0,1-.72-1.8,2.44,2.44,0,0,1,.72-1.8,2.48,2.48,0,0,1,1.81-.72H42v-2h.79V6.21h.29a2.46,2.46,0,0,1,2.52,2.52,2.46,2.46,0,0,1-2.52,2.52ZM41.74,7A1.69,1.69,0,0,0,40,8.72,1.7,1.7,0,0,0,40.51,10a1.67,1.67,0,0,0,1.23.5l.29,0V7Zm1.37,0-.29,0v3.44l.29,0a1.65,1.65,0,0,0,1.22-.5,1.71,1.71,0,0,0,.5-1.24,1.68,1.68,0,0,0-.5-1.24A1.64,1.64,0,0,0,43.11,7Z"></path> <path class="cls-1" d="M47.93,11.14V7.05H46.12V6.3h4.41v.75H48.71v4.09Z"></path> <path class="cls-1" d="M52.13,9.05v2.09h-.78V6.3h.78v2H55v-2h.78v4.84H55V9.05Z"></path> <path class="cls-1" d="M59.24,6.2A2.21,2.21,0,0,1,61,7V6.3h.78v4.84H61v-.69a2.21,2.21,0,0,1-1.77.79,2.27,2.27,0,0,1-1.7-.72,2.53,2.53,0,0,1-.68-1.8,2.5,2.5,0,0,1,.68-1.8A2.24,2.24,0,0,1,59.24,6.2Zm.09.78a1.58,1.58,0,0,0-1.18.5,1.7,1.7,0,0,0-.48,1.24A1.72,1.72,0,0,0,58.15,10a1.64,1.64,0,0,0,2.36,0A1.69,1.69,0,0,0,61,8.72a1.69,1.69,0,0,0-.48-1.24A1.58,1.58,0,0,0,59.33,7Z"></path> <path class="cls-1" d="M65.06,9.38l-1.23,1.76h-.92l1.24-1.79a1.45,1.45,0,0,1-.87-.53,1.51,1.51,0,0,1-.34-1,1.47,1.47,0,0,1,.43-1.09,1.53,1.53,0,0,1,1.11-.44h2.63v4.84h-.78V9.38Zm-.58-.75h1.85V7.05H64.48a.7.7,0,0,0-.53.23.79.79,0,0,0-.2.55.84.84,0,0,0,.2.57A.7.7,0,0,0,64.48,8.63Z"></path> <path class="cls-1" d="M11.64,22.7H10.8V16.19h.84l2.62,4.58,2.61-4.58h.84V22.7h-.84V17.78l-2.34,4.11H14l-2.34-4.1Z"></path> <path class="cls-1" d="M21.23,17.76a2.23,2.23,0,0,1,1.76.79v-.68h.78V22.7H23V22a2.21,2.21,0,0,1-1.76.8,2.27,2.27,0,0,1-1.71-.72,2.54,2.54,0,0,1-.68-1.81,2.49,2.49,0,0,1,.68-1.79A2.27,2.27,0,0,1,21.23,17.76Zm.08.79a1.54,1.54,0,0,0-1.18.5,1.7,1.7,0,0,0-.48,1.23,1.73,1.73,0,0,0,.48,1.25,1.6,1.6,0,0,0,1.18.49,1.57,1.57,0,0,0,1.18-.49A1.71,1.71,0,0,0,23,20.28a1.67,1.67,0,0,0-.48-1.23A1.54,1.54,0,0,0,21.31,18.55Z"></path> <path class="cls-1" d="M29.67,19.22l-.78.24a1.66,1.66,0,0,0-.62-.67,1.73,1.73,0,0,0-.9-.24,1.6,1.6,0,0,0-1.22.5,1.67,1.67,0,0,0-.5,1.23,1.74,1.74,0,0,0,.5,1.25,1.64,1.64,0,0,0,1.22.49,1.73,1.73,0,0,0,.9-.24,1.66,1.66,0,0,0,.62-.67l.78.23a2.33,2.33,0,0,1-.91,1.07,2.59,2.59,0,0,1-1.39.4,2.46,2.46,0,0,1-2.53-2.53,2.42,2.42,0,0,1,.72-1.79,2.47,2.47,0,0,1,1.81-.73,2.58,2.58,0,0,1,1.39.39A2.38,2.38,0,0,1,29.67,19.22Z"></path> <path class="cls-1" d="M32,22.7V18.62H30.17v-.75h4.4v.75H32.76V22.7Z"></path> <path class="cls-1" d="M39.89,20.55H35.73a1.69,1.69,0,0,0,.57,1.09,1.73,1.73,0,0,0,1.2.43,1.66,1.66,0,0,0,1.43-.7l.76.24a2.29,2.29,0,0,1-.92.88,2.6,2.6,0,0,1-1.27.32,2.56,2.56,0,0,1-1.85-.72,2.45,2.45,0,0,1-.73-1.81,2.42,2.42,0,0,1,.72-1.79,2.52,2.52,0,0,1,3.55,0,2.41,2.41,0,0,1,.71,1.79S39.9,20.39,39.89,20.55Zm-4.15-.63H39.1a1.74,1.74,0,0,0-.59-1,1.64,1.64,0,0,0-1.12-.4,1.6,1.6,0,0,0-1.09.4A1.72,1.72,0,0,0,35.74,19.92Z"></path> <path class="cls-1" d="M41.68,24.8H40.9V17.87h.78v.68a2.35,2.35,0,0,1,3.46-.06,2.48,2.48,0,0,1,.69,1.79,2.54,2.54,0,0,1-.69,1.81,2.27,2.27,0,0,1-1.7.72,2.21,2.21,0,0,1-1.76-.8Zm1.68-6.25a1.58,1.58,0,0,0-1.19.5,1.73,1.73,0,0,0-.47,1.23,1.76,1.76,0,0,0,.47,1.25,1.62,1.62,0,0,0,1.19.49,1.57,1.57,0,0,0,1.18-.49A1.71,1.71,0,0,0,45,20.28a1.67,1.67,0,0,0-.48-1.23A1.54,1.54,0,0,0,43.36,18.55Z"></path> <path class="cls-1" d="M51.48,19.22l-.79.24a1.64,1.64,0,0,0-.61-.67,1.77,1.77,0,0,0-.91-.24,1.6,1.6,0,0,0-1.22.5,1.67,1.67,0,0,0-.49,1.23A1.73,1.73,0,0,0,48,21.53a1.66,1.66,0,0,0,1.22.49,1.77,1.77,0,0,0,.91-.24,1.64,1.64,0,0,0,.61-.67l.79.23a2.35,2.35,0,0,1-.92,1.07,2.56,2.56,0,0,1-1.39.4,2.46,2.46,0,0,1-2.52-2.53,2.42,2.42,0,0,1,.72-1.79,2.45,2.45,0,0,1,1.8-.73,2.56,2.56,0,0,1,1.39.39A2.4,2.4,0,0,1,51.48,19.22Z"></path> <path class="cls-1" d="M53.25,17.87V22.7h-.78V17.87Zm3.29,4.83h-1l-2.18-2.5,2-2.33h1l-2,2.33Z"></path> <path class="cls-1" d="M59.24,17.76a2.24,2.24,0,0,1,1.77.79v-.68h.78V22.7H61V22a2.21,2.21,0,0,1-1.77.8,2.27,2.27,0,0,1-1.7-.72,2.54,2.54,0,0,1-.68-1.81,2.49,2.49,0,0,1,.68-1.79A2.25,2.25,0,0,1,59.24,17.76Zm.09.79a1.54,1.54,0,0,0-1.18.5,1.7,1.7,0,0,0-.48,1.23,1.73,1.73,0,0,0,.48,1.25,1.67,1.67,0,0,0,2.36,0A1.71,1.71,0,0,0,61,20.28a1.67,1.67,0,0,0-.48-1.23A1.54,1.54,0,0,0,59.33,18.55Z"></path> <path class="cls-1" d="M65.06,20.94,63.83,22.7h-.92l1.24-1.78a1.58,1.58,0,0,1-.78-2.62,1.56,1.56,0,0,1,1.11-.43h2.63V22.7h-.78V20.94Zm-.58-.75h1.85V18.62H64.48a.69.69,0,0,0-.53.22A.88.88,0,0,0,64,20,.67.67,0,0,0,64.48,20.19Z"></path> <path class="cls-1" d="M20,27.73a3.37,3.37,0,0,1,1.72.45A3.33,3.33,0,0,1,23,29.42l-.82.31a2.53,2.53,0,0,0-.9-.88A2.44,2.44,0,0,0,20,28.54a2.35,2.35,0,0,0-1.78.73,2.66,2.66,0,0,0,0,3.64,2.42,2.42,0,0,0,1.78.73,2.45,2.45,0,0,0,1.23-.32,2.37,2.37,0,0,0,.9-.88l.82.31A3.26,3.26,0,0,1,21.74,34a3.38,3.38,0,0,1-1.72.46,3.28,3.28,0,0,1-3.36-3.36A3.3,3.3,0,0,1,20,27.73Z"></path> <path class="cls-1" d="M28.69,32.19H24.53a1.69,1.69,0,0,0,.57,1.09,1.73,1.73,0,0,0,1.2.43,1.66,1.66,0,0,0,1.43-.7l.76.24a2.29,2.29,0,0,1-.92.88,2.6,2.6,0,0,1-1.27.32,2.56,2.56,0,0,1-1.85-.72,2.45,2.45,0,0,1-.73-1.81,2.42,2.42,0,0,1,.72-1.79,2.52,2.52,0,0,1,3.55,0,2.41,2.41,0,0,1,.71,1.79S28.7,32,28.69,32.19Zm-4.15-.63H27.9a1.74,1.74,0,0,0-.59-1,1.64,1.64,0,0,0-1.12-.4,1.6,1.6,0,0,0-1.09.4A1.72,1.72,0,0,0,24.54,31.56Z"></path> <path class="cls-1" d="M30.48,36.44H29.7V29.51h.78v.68a2.35,2.35,0,0,1,3.46-.06,2.48,2.48,0,0,1,.69,1.79,2.54,2.54,0,0,1-.69,1.81,2.25,2.25,0,0,1-1.7.72,2.21,2.21,0,0,1-1.76-.8Zm1.68-6.25a1.58,1.58,0,0,0-1.19.5,1.73,1.73,0,0,0-.47,1.23A1.76,1.76,0,0,0,31,33.17a1.62,1.62,0,0,0,1.19.49,1.57,1.57,0,0,0,1.18-.49,1.71,1.71,0,0,0,.48-1.25,1.67,1.67,0,0,0-.48-1.23A1.54,1.54,0,0,0,32.16,30.19Z"></path> <path class="cls-1" d="M36.48,30.26v4.08H35.7V29.51h3.12v.75Z"></path> <path class="cls-1" d="M44.13,32.19H40a1.74,1.74,0,0,0,1.77,1.52,1.66,1.66,0,0,0,1.43-.7l.76.24a2.33,2.33,0,0,1-.91.88,2.67,2.67,0,0,1-1.28.32,2.57,2.57,0,0,1-1.85-.72,2.45,2.45,0,0,1-.73-1.81,2.48,2.48,0,0,1,2.49-2.52,2.39,2.39,0,0,1,1.78.73,2.42,2.42,0,0,1,.72,1.79S44.14,32,44.13,32.19ZM40,31.56h3.36a1.74,1.74,0,0,0-.59-1,1.64,1.64,0,0,0-1.12-.4,1.55,1.55,0,0,0-1.08.4A1.69,1.69,0,0,0,40,31.56Z"></path> <path class="cls-1" d="M49.86,32.19H45.7a1.66,1.66,0,0,0,.58,1.09,1.69,1.69,0,0,0,1.19.43A1.66,1.66,0,0,0,48.9,33l.76.24a2.29,2.29,0,0,1-.92.88,2.6,2.6,0,0,1-1.27.32,2.56,2.56,0,0,1-1.85-.72,2.45,2.45,0,0,1-.73-1.81,2.48,2.48,0,0,1,2.49-2.52,2.39,2.39,0,0,1,1.78.73,2.42,2.42,0,0,1,.72,1.79S49.87,32,49.86,32.19Zm-4.15-.63h3.36a1.74,1.74,0,0,0-.59-1,1.64,1.64,0,0,0-1.12-.4,1.55,1.55,0,0,0-1.08.4A1.69,1.69,0,0,0,45.71,31.56Z"></path> <path class="cls-1" d="M50.87,29.51h2.49a1.59,1.59,0,0,1,.93.27,1.18,1.18,0,0,1,.5.72c0,.12,0,.18,0,.2a1.29,1.29,0,0,1-.5,1.08,1.37,1.37,0,0,1,.54.47,1.28,1.28,0,0,1,.2.68,1.33,1.33,0,0,1-.43,1,1.5,1.5,0,0,1-1.07.4H50.87Zm2.49.75H51.65v1.25h1.71a.63.63,0,0,0,.47-.18.61.61,0,0,0,.18-.45.57.57,0,0,0-.18-.44A.63.63,0,0,0,53.36,30.26Zm-1.71,1.91v1.42h1.91a.63.63,0,0,0,.48-.21.69.69,0,0,0,.2-.5.73.73,0,0,0-.2-.51.62.62,0,0,0-.48-.2Z"></path> <path class="cls-1" d="M58.45,34.34H56.06V29.51h.78v1.74h1.61a1.52,1.52,0,0,1,1.12.45A1.47,1.47,0,0,1,60,32.8a1.5,1.5,0,0,1-.41,1.06,1.52,1.52,0,0,1-1,.48Zm0-2.33H56.84v1.58h1.61a.74.74,0,0,0,.54-.23.82.82,0,0,0,0-1.12A.7.7,0,0,0,58.45,32Zm3.13,2.33H60.8V29.51h.78Z"></path> <path class="cls-1" d="M66.18,34.34l-1.41-1.85-1.43,1.85h-.93l1.89-2.47-1.8-2.36h.93l1.34,1.74,1.33-1.74H67l-1.8,2.36,1.88,2.47Z"></path> </g> </g> </svg> 